<?xml version="1.0" standalone="no"?>
<!DOCTYPE svg PUBLIC "-//W3C//DTD SVG 20010904//EN"
 "http://www.w3.org/TR/2001/REC-SVG-20010904/DTD/svg10.dtd">
<svg version="1.0" xmlns="http://www.w3.org/2000/svg"
 width="2000.000000pt" height="2000.000000pt" viewBox="0 0 2000.000000 2000.000000"
 preserveAspectRatio="xMidYMid meet">

<g transform="translate(0.000000,2000.000000) scale(0.100000,-0.100000)"
fill="#FEFEFE" stroke="none">
<path d="M9455 14654 c-16 -2 -208 -8 -425 -14 -217 -5 -442 -14 -500 -20 -58
-5 -199 -15 -315 -21 -115 -6 -277 -17 -360 -25 -82 -8 -187 -14 -232 -14 -45
0 -131 -6 -190 -14 -59 -8 -173 -19 -253 -25 -262 -21 -586 -56 -835 -92 -77
-11 -171 -25 -210 -30 -38 -5 -95 -13 -125 -18 -30 -5 -98 -14 -150 -21 -97
-11 -177 -24 -380 -59 -63 -11 -140 -23 -170 -27 -124 -14 -724 -121 -820
-145 -19 -5 -93 -20 -165 -34 -130 -25 -375 -109 -493 -169 -79 -40 -259 -153
-327 -205 -123 -94 -377 -363 -439 -464 -11 -19 -44 -73 -73 -119 -207 -332
-411 -737 -538 -1068 -100 -260 -123 -324 -145 -400 -12 -41 -28 -89 -35 -107
-8 -17 -21 -64 -30 -105 -8 -40 -27 -113 -40 -163 -74 -263 -146 -688 -165
-970 -13 -195 -13 -859 0 -1045 11 -153 43 -414 60 -490 6 -25 24 -117 40
-204 17 -87 46 -217 65 -288 19 -71 35 -136 35 -146 0 -9 20 -87 45 -172 42
-141 60 -194 100 -300 7 -19 27 -78 44 -130 37 -117 107 -308 119 -324 4 -6
21 -45 36 -86 16 -41 43 -106 61 -145 18 -38 57 -122 85 -185 98 -214 317
-637 407 -785 17 -27 54 -90 83 -140 66 -114 126 -190 217 -278 81 -77 137
-116 233 -160 341 -156 662 -139 979 52 129 78 275 241 351 391 39 76 87 241
100 339 30 235 -46 506 -212 753 -21 31 -38 60 -38 64 0 4 -20 39 -44 78 -61
99 -201 371 -286 556 -39 85 -78 170 -87 189 -27 59 -134 324 -148 366 -101
311 -165 543 -165 600 0 32 7 51 26 75 51 60 53 60 427 66 467 8 678 -12 819
-76 53 -25 178 -103 244 -152 89 -66 207 -231 256 -358 27 -66 65 -280 73
-400 7 -104 42 -305 72 -409 22 -78 85 -210 127 -267 75 -102 122 -157 156
-180 19 -13 51 -35 70 -48 49 -35 153 -73 230 -86 87 -14 6549 -14 6705 0 218
19 360 104 501 297 40 55 113 204 138 279 28 87 64 294 71 414 4 63 18 174 31
245 57 303 218 507 520 658 140 70 325 88 829 80 333 -5 363 -7 396 -25 43
-24 69 -64 69 -108 0 -71 -123 -518 -180 -652 -5 -13 -32 -84 -60 -158 -29
-74 -61 -151 -72 -169 -11 -19 -30 -64 -44 -99 -13 -35 -35 -84 -49 -110 -14
-26 -38 -74 -54 -107 -58 -123 -189 -374 -209 -402 -11 -16 -35 -56 -53 -88
-18 -33 -47 -80 -64 -105 -18 -25 -40 -61 -50 -80 -10 -19 -27 -53 -38 -75
-31 -61 -67 -161 -89 -250 -24 -96 -29 -290 -9 -380 15 -71 67 -237 88 -280
36 -73 115 -176 196 -257 222 -219 551 -325 854 -275 110 18 281 85 385 150
102 64 231 198 303 312 20 33 47 76 59 95 179 281 511 941 642 1275 30 77 72
183 94 235 21 52 47 127 59 165 11 39 36 115 54 170 19 55 42 125 51 155 8 30
25 83 36 118 10 35 22 80 26 100 3 20 21 93 39 162 61 228 131 629 157 900 17
176 17 977 -1 1189 -22 275 -92 671 -160 911 -17 58 -31 112 -31 120 0 21 -86
310 -117 395 -81 220 -103 278 -135 350 -19 44 -53 122 -74 174 -72 174 -281
579 -383 739 -157 249 -224 336 -376 487 -125 126 -190 178 -331 266 -207 129
-480 242 -649 269 -27 4 -153 28 -280 53 -322 64 -614 117 -677 123 -29 3
-147 21 -263 40 -201 34 -275 45 -520 79 -60 9 -153 22 -205 30 -233 36 -628
81 -925 105 -71 6 -155 15 -185 20 -30 6 -149 14 -264 20 -115 6 -213 13 -216
15 -8 5 -167 14 -885 54 -422 23 -1674 40 -1820 25z m-3210 -1128 c73 -33 108
-84 113 -161 3 -48 -1 -71 -16 -101 -40 -79 -76 -95 -282 -128 -91 -14 -190
-30 -220 -36 -30 -5 -131 -21 -225 -35 -93 -14 -194 -29 -224 -35 -79 -15
-165 -12 -208 5 -56 23 -96 86 -101 157 -6 74 1 100 40 143 53 62 71 66 433
120 94 14 226 35 295 46 185 29 302 47 325 48 11 0 43 -10 70 -23z m7751 -1
c87 -14 202 -32 254 -40 295 -45 485 -76 520 -84 53 -12 84 -33 120 -83 25
-34 30 -50 30 -100 0 -67 -14 -99 -62 -145 -44 -43 -92 -62 -142 -56 -46 5
-306 44 -491 73 -66 11 -194 31 -285 45 -190 30 -234 49 -275 119 -37 63 -36
148 3 202 36 50 50 61 98 78 52 19 48 20 230 -9z m-1547 -139 c8 -10 11 -475
12 -1761 0 -961 -2 -1749 -4 -1752 -7 -6 -4908 -4 -4918 3 -11 7 -12 3484 -1
3501 7 10 510 13 2443 16 1339 1 2439 3 2445 5 6 1 17 -4 23 -12z m924 -622
c67 -48 81 -88 85 -239 5 -174 -6 -221 -65 -279 -35 -35 -55 -47 -90 -52 -99
-15 -163 14 -211 96 -26 44 -27 50 -27 205 0 185 10 219 81 268 75 52 153 52
227 1z m-6526 4 c70 -46 83 -88 83 -271 0 -179 -6 -201 -68 -261 -36 -34 -47
-39 -104 -43 -76 -6 -132 16 -171 69 -39 53 -47 93 -47 238 0 181 10 210 95
272 37 27 46 29 106 26 51 -3 76 -10 106 -30z m-1307 -526 c80 -11 209 -97
282 -188 67 -85 73 -95 106 -197 l27 -82 0 -735 c0 -786 0 -790 -50 -890 -40
-80 -130 -151 -229 -181 -41 -12 -1314 -14 -1351 -1 -70 23 -111 46 -160 88
-57 50 -85 97 -111 191 -17 61 -17 66 10 250 36 247 51 301 173 663 56 167
174 442 260 605 9 17 35 66 58 110 110 211 157 267 235 281 19 4 76 17 125 29
98 25 228 49 345 64 74 9 172 7 280 -7z m9195 7 c104 -11 248 -35 300 -50 17
-4 73 -18 125 -30 125 -29 141 -38 175 -101 15 -29 40 -71 55 -93 15 -22 41
-67 57 -100 16 -33 39 -78 51 -100 244 -458 435 -1043 459 -1397 5 -86 3 -104
-17 -160 -27 -73 -56 -122 -96 -160 -31 -29 -116 -74 -167 -89 -47 -14 -1300
-12 -1351 2 -119 32 -214 119 -256 235 l-25 69 0 750 0 750 23 80 c32 106 61
155 146 240 142 141 276 181 521 154z m-7920 -633 c101 -47 117 -87 116 -293
-1 -105 -6 -165 -15 -187 -18 -43 -91 -104 -133 -112 -89 -17 -179 27 -219
106 -21 41 -23 59 -24 192 0 122 3 154 19 190 23 53 64 93 116 112 56 21 83
19 140 -8z m6507 8 c24 -9 60 -34 80 -56 49 -53 61 -109 57 -274 -4 -125 -5
-133 -34 -179 -91 -147 -303 -117 -350 49 -16 59 -19 232 -5 308 13 67 51 114
114 144 60 28 81 29 138 8z m-6505 -1179 c32 -16 61 -41 79 -67 l29 -41 0
-182 c0 -177 -1 -182 -25 -219 -94 -138 -294 -107 -348 55 -7 21 -12 92 -12
171 0 112 3 144 19 180 24 56 68 96 122 113 62 19 79 18 136 -10z m6506 9 c58
-20 111 -78 126 -139 14 -57 14 -268 0 -320 -25 -91 -127 -164 -209 -150 -60
10 -125 59 -152 113 -27 56 -36 203 -20 320 13 90 43 134 116 168 60 28 77 29
139 8z m-5294 -1459 c153 -17 323 -135 411 -284 57 -98 80 -184 80 -301 0
-202 -85 -366 -252 -487 -178 -129 -397 -147 -598 -49 -257 125 -393 416 -320
683 63 234 268 415 500 443 36 4 79 6 95 4 17 -2 54 -6 84 -9z m2179 -28 c199
-81 334 -242 378 -447 56 -263 -97 -549 -353 -658 -121 -52 -224 -62 -350 -36
-237 49 -417 231 -469 474 -52 244 77 514 302 632 110 58 160 68 304 64 106
-3 135 -7 188 -29z m2015 18 c196 -51 361 -213 421 -413 78 -264 -51 -560
-300 -689 -83 -43 -193 -73 -267 -73 -162 0 -352 86 -456 207 -49 58 -103 158
-125 232 -22 73 -21 249 0 322 58 196 206 346 404 410 71 23 242 25 323 4z"/>
</g>
</svg>
